<svg width="1440" height="80" viewBox="0 0 1440 80" fill="none" xmlns="http://www.w3.org/2000/svg">
<rect width="1440" height="80" fill="white"/>
<path d="M111.609 42.3281H112.75C112.75 43.1458 112.516 43.7604 112.047 44.1719C111.583 44.5781 110.953 44.7812 110.156 44.7812C109.604 44.7812 109.125 44.6536 108.719 44.3984C108.318 44.1432 108.005 43.7891 107.781 43.3359C107.562 42.8828 107.453 42.3568 107.453 41.7578V40.8594C107.453 40.2604 107.562 39.7344 107.781 39.2812C108.005 38.8281 108.318 38.474 108.719 38.2188C109.125 37.9635 109.604 37.8359 110.156 37.8359C110.953 37.8359 111.586 38.0391 112.055 38.4453C112.523 38.8516 112.758 39.4635 112.758 40.2812H111.617C111.617 39.7656 111.492 39.3958 111.242 39.1719C110.997 38.9479 110.635 38.8359 110.156 38.8359C109.812 38.8359 109.523 38.9219 109.289 39.0938C109.055 39.2656 108.878 39.5052 108.758 39.8125C108.638 40.1146 108.578 40.4609 108.578 40.8516V41.7578C108.578 42.1536 108.638 42.5052 108.758 42.8125C108.878 43.1146 109.055 43.3516 109.289 43.5234C109.523 43.6953 109.812 43.7812 110.156 43.7812C110.635 43.7812 110.997 43.6693 111.242 43.4453C111.487 43.2214 111.609 42.849 111.609 42.3281ZM105.617 41.3047C105.617 41.9974 105.737 42.6432 105.977 43.2422C106.216 43.8411 106.549 44.3646 106.977 44.8125C107.404 45.2604 107.898 45.6094 108.461 45.8594C109.023 46.1094 109.625 46.2344 110.266 46.2344C110.906 46.2344 111.505 46.1094 112.062 45.8594C112.625 45.6094 113.117 45.2604 113.539 44.8125C113.966 44.3646 114.299 43.8411 114.539 43.2422C114.779 42.6432 114.898 41.9974 114.898 41.3047C114.898 40.6068 114.779 39.9609 114.539 39.3672C114.299 38.7734 113.966 38.2552 113.539 37.8125C113.117 37.3646 112.625 37.0182 112.062 36.7734C111.505 36.5234 110.906 36.3984 110.266 36.3984C109.625 36.3984 109.023 36.5234 108.461 36.7734C107.898 37.0182 107.404 37.3646 106.977 37.8125C106.549 38.2552 106.216 38.7734 105.977 39.3672C105.737 39.9609 105.617 40.6068 105.617 41.3047ZM104.719 41.3047C104.719 40.4766 104.862 39.7083 105.148 39C105.435 38.2917 105.833 37.6745 106.344 37.1484C106.854 36.6172 107.443 36.2057 108.109 35.9141C108.781 35.6172 109.5 35.4688 110.266 35.4688C111.031 35.4688 111.747 35.6172 112.414 35.9141C113.086 36.2057 113.674 36.6172 114.18 37.1484C114.69 37.6745 115.089 38.2917 115.375 39C115.661 39.7083 115.805 40.4766 115.805 41.3047C115.805 42.1328 115.661 42.901 115.375 43.6094C115.089 44.3177 114.69 44.9401 114.18 45.4766C113.674 46.0078 113.086 46.4219 112.414 46.7188C111.747 47.0156 111.031 47.1641 110.266 47.1641C109.5 47.1641 108.781 47.0156 108.109 46.7188C107.443 46.4219 106.854 46.0078 106.344 45.4766C105.833 44.9401 105.435 44.3177 105.148 43.6094C104.862 42.901 104.719 42.1328 104.719 41.3047ZM128.945 45.8125V47H121.5V45.9609L125.227 41.8125C125.685 41.3021 126.039 40.8698 126.289 40.5156C126.544 40.1562 126.721 39.8359 126.82 39.5547C126.924 39.2682 126.977 38.9766 126.977 38.6797C126.977 38.3047 126.898 37.9661 126.742 37.6641C126.591 37.3568 126.367 37.112 126.07 36.9297C125.773 36.7474 125.414 36.6562 124.992 36.6562C124.487 36.6562 124.065 36.7552 123.727 36.9531C123.393 37.1458 123.143 37.4167 122.977 37.7656C122.81 38.1146 122.727 38.5156 122.727 38.9688H121.281C121.281 38.3281 121.422 37.7422 121.703 37.2109C121.984 36.6797 122.401 36.2578 122.953 35.9453C123.505 35.6276 124.185 35.4688 124.992 35.4688C125.711 35.4688 126.326 35.5964 126.836 35.8516C127.346 36.1016 127.737 36.4557 128.008 36.9141C128.284 37.3672 128.422 37.8984 128.422 38.5078C128.422 38.8411 128.365 39.1797 128.25 39.5234C128.141 39.862 127.987 40.2005 127.789 40.5391C127.596 40.8776 127.37 41.2109 127.109 41.5391C126.854 41.8672 126.581 42.1901 126.289 42.5078L123.242 45.8125H128.945ZM137.633 40.4062V42.1406C137.633 43.0729 137.549 43.8594 137.383 44.5C137.216 45.1406 136.977 45.6562 136.664 46.0469C136.352 46.4375 135.974 46.7214 135.531 46.8984C135.094 47.0703 134.599 47.1562 134.047 47.1562C133.609 47.1562 133.206 47.1016 132.836 46.9922C132.466 46.8828 132.133 46.7083 131.836 46.4688C131.544 46.224 131.294 45.9062 131.086 45.5156C130.878 45.125 130.719 44.651 130.609 44.0938C130.5 43.5365 130.445 42.8854 130.445 42.1406V40.4062C130.445 39.474 130.529 38.6927 130.695 38.0625C130.867 37.4323 131.109 36.9271 131.422 36.5469C131.734 36.1615 132.109 35.8854 132.547 35.7188C132.99 35.5521 133.484 35.4688 134.031 35.4688C134.474 35.4688 134.88 35.5234 135.25 35.6328C135.625 35.737 135.958 35.9062 136.25 36.1406C136.542 36.3698 136.789 36.6771 136.992 37.0625C137.201 37.4427 137.359 37.9089 137.469 38.4609C137.578 39.013 137.633 39.6615 137.633 40.4062ZM136.18 42.375V40.1641C136.18 39.6536 136.148 39.2057 136.086 38.8203C136.029 38.4297 135.943 38.0964 135.828 37.8203C135.714 37.5443 135.568 37.3203 135.391 37.1484C135.219 36.9766 135.018 36.8516 134.789 36.7734C134.565 36.6901 134.312 36.6484 134.031 36.6484C133.688 36.6484 133.383 36.7135 133.117 36.8438C132.852 36.9688 132.628 37.1693 132.445 37.4453C132.268 37.7214 132.133 38.0833 132.039 38.5312C131.945 38.9792 131.898 39.5234 131.898 40.1641V42.375C131.898 42.8854 131.927 43.3359 131.984 43.7266C132.047 44.1172 132.138 44.4557 132.258 44.7422C132.378 45.0234 132.523 45.2552 132.695 45.4375C132.867 45.6198 133.065 45.7552 133.289 45.8438C133.518 45.9271 133.771 45.9688 134.047 45.9688C134.401 45.9688 134.711 45.901 134.977 45.7656C135.242 45.6302 135.464 45.4193 135.641 45.1328C135.823 44.8411 135.958 44.4688 136.047 44.0156C136.135 43.5573 136.18 43.0104 136.18 42.375ZM146.945 45.8125V47H139.5V45.9609L143.227 41.8125C143.685 41.3021 144.039 40.8698 144.289 40.5156C144.544 40.1562 144.721 39.8359 144.82 39.5547C144.924 39.2682 144.977 38.9766 144.977 38.6797C144.977 38.3047 144.898 37.9661 144.742 37.6641C144.591 37.3568 144.367 37.112 144.07 36.9297C143.773 36.7474 143.414 36.6562 142.992 36.6562C142.487 36.6562 142.065 36.7552 141.727 36.9531C141.393 37.1458 141.143 37.4167 140.977 37.7656C140.81 38.1146 140.727 38.5156 140.727 38.9688H139.281C139.281 38.3281 139.422 37.7422 139.703 37.2109C139.984 36.6797 140.401 36.2578 140.953 35.9453C141.505 35.6276 142.185 35.4688 142.992 35.4688C143.711 35.4688 144.326 35.5964 144.836 35.8516C145.346 36.1016 145.737 36.4557 146.008 36.9141C146.284 37.3672 146.422 37.8984 146.422 38.5078C146.422 38.8411 146.365 39.1797 146.25 39.5234C146.141 39.862 145.987 40.2005 145.789 40.5391C145.596 40.8776 145.37 41.2109 145.109 41.5391C144.854 41.8672 144.581 42.1901 144.289 42.5078L141.242 45.8125H146.945ZM156.18 43.1719V44.3594H147.961V43.5078L153.055 35.625H154.234L152.969 37.9062L149.602 43.1719H156.18ZM154.594 35.625V47H153.148V35.625H154.594ZM167.898 44.125C167.898 43.8594 167.857 43.625 167.773 43.4219C167.695 43.2135 167.555 43.026 167.352 42.8594C167.154 42.6927 166.878 42.5339 166.523 42.3828C166.174 42.2318 165.732 42.0781 165.195 41.9219C164.633 41.7552 164.125 41.5703 163.672 41.3672C163.219 41.1589 162.831 40.9219 162.508 40.6562C162.185 40.3906 161.938 40.0859 161.766 39.7422C161.594 39.3984 161.508 39.0052 161.508 38.5625C161.508 38.1198 161.599 37.7109 161.781 37.3359C161.964 36.9609 162.224 36.6354 162.562 36.3594C162.906 36.0781 163.315 35.8594 163.789 35.7031C164.263 35.5469 164.792 35.4688 165.375 35.4688C166.229 35.4688 166.953 35.6328 167.547 35.9609C168.146 36.2839 168.602 36.7083 168.914 37.2344C169.227 37.7552 169.383 38.3125 169.383 38.9062H167.883C167.883 38.4792 167.792 38.1016 167.609 37.7734C167.427 37.4401 167.151 37.1797 166.781 36.9922C166.411 36.7995 165.943 36.7031 165.375 36.7031C164.839 36.7031 164.396 36.7839 164.047 36.9453C163.698 37.1068 163.438 37.3255 163.266 37.6016C163.099 37.8776 163.016 38.1927 163.016 38.5469C163.016 38.7865 163.065 39.0052 163.164 39.2031C163.268 39.3958 163.427 39.5755 163.641 39.7422C163.859 39.9089 164.135 40.0625 164.469 40.2031C164.807 40.3438 165.211 40.4792 165.68 40.6094C166.326 40.7917 166.883 40.9948 167.352 41.2188C167.82 41.4427 168.206 41.6953 168.508 41.9766C168.815 42.2526 169.042 42.5677 169.188 42.9219C169.339 43.2708 169.414 43.6667 169.414 44.1094C169.414 44.5729 169.32 44.9922 169.133 45.3672C168.945 45.7422 168.677 46.0625 168.328 46.3281C167.979 46.5938 167.56 46.7995 167.07 46.9453C166.586 47.0859 166.044 47.1562 165.445 47.1562C164.919 47.1562 164.401 47.0833 163.891 46.9375C163.385 46.7917 162.924 46.5729 162.508 46.2812C162.096 45.9896 161.766 45.6302 161.516 45.2031C161.271 44.7708 161.148 44.2708 161.148 43.7031H162.648C162.648 44.0938 162.724 44.4297 162.875 44.7109C163.026 44.987 163.232 45.2161 163.492 45.3984C163.758 45.5807 164.057 45.7161 164.391 45.8047C164.729 45.888 165.081 45.9297 165.445 45.9297C165.971 45.9297 166.417 45.8568 166.781 45.7109C167.146 45.5651 167.422 45.3568 167.609 45.0859C167.802 44.8151 167.898 44.4948 167.898 44.125ZM176.289 45.0469V38.5469H177.742V47H176.359L176.289 45.0469ZM176.562 43.2656L177.164 43.25C177.164 43.8125 177.104 44.3333 176.984 44.8125C176.87 45.2865 176.682 45.6979 176.422 46.0469C176.161 46.3958 175.82 46.6693 175.398 46.8672C174.977 47.0599 174.464 47.1562 173.859 47.1562C173.448 47.1562 173.07 47.0964 172.727 46.9766C172.388 46.8568 172.096 46.6719 171.852 46.4219C171.607 46.1719 171.417 45.8464 171.281 45.4453C171.151 45.0443 171.086 44.5625 171.086 44V38.5469H172.531V44.0156C172.531 44.3958 172.573 44.7109 172.656 44.9609C172.745 45.2057 172.862 45.401 173.008 45.5469C173.159 45.6875 173.326 45.7865 173.508 45.8438C173.695 45.901 173.888 45.9297 174.086 45.9297C174.701 45.9297 175.188 45.8125 175.547 45.5781C175.906 45.3385 176.164 45.0182 176.32 44.6172C176.482 44.2109 176.562 43.7604 176.562 43.2656ZM181.391 40.1719V50.25H179.938V38.5469H181.266L181.391 40.1719ZM187.086 42.7031V42.8672C187.086 43.4818 187.013 44.0521 186.867 44.5781C186.721 45.099 186.508 45.5521 186.227 45.9375C185.951 46.3229 185.609 46.6224 185.203 46.8359C184.797 47.0495 184.331 47.1562 183.805 47.1562C183.268 47.1562 182.794 47.0677 182.383 46.8906C181.971 46.7135 181.622 46.4557 181.336 46.1172C181.049 45.7786 180.82 45.3724 180.648 44.8984C180.482 44.4245 180.367 43.8906 180.305 43.2969V42.4219C180.367 41.7969 180.484 41.237 180.656 40.7422C180.828 40.2474 181.055 39.8255 181.336 39.4766C181.622 39.1224 181.969 38.8542 182.375 38.6719C182.781 38.4844 183.25 38.3906 183.781 38.3906C184.312 38.3906 184.784 38.4948 185.195 38.7031C185.607 38.9062 185.953 39.1979 186.234 39.5781C186.516 39.9583 186.727 40.4141 186.867 40.9453C187.013 41.4714 187.086 42.0573 187.086 42.7031ZM185.633 42.8672V42.7031C185.633 42.2812 185.589 41.8854 185.5 41.5156C185.411 41.1406 185.273 40.8125 185.086 40.5312C184.904 40.2448 184.669 40.0208 184.383 39.8594C184.096 39.6927 183.755 39.6094 183.359 39.6094C182.995 39.6094 182.677 39.6719 182.406 39.7969C182.141 39.9219 181.914 40.0911 181.727 40.3047C181.539 40.513 181.385 40.7526 181.266 41.0234C181.151 41.2891 181.065 41.5651 181.008 41.8516V43.875C181.112 44.2396 181.258 44.5833 181.445 44.9062C181.633 45.224 181.883 45.4818 182.195 45.6797C182.508 45.8724 182.901 45.9688 183.375 45.9688C183.766 45.9688 184.102 45.888 184.383 45.7266C184.669 45.5599 184.904 45.3333 185.086 45.0469C185.273 44.7604 185.411 44.4323 185.5 44.0625C185.589 43.6875 185.633 43.2891 185.633 42.8672ZM192.438 47.1562C191.849 47.1562 191.315 47.0573 190.836 46.8594C190.362 46.6562 189.953 46.3724 189.609 46.0078C189.271 45.6432 189.01 45.2109 188.828 44.7109C188.646 44.2109 188.555 43.6641 188.555 43.0703V42.7422C188.555 42.0547 188.656 41.4427 188.859 40.9062C189.062 40.3646 189.339 39.9062 189.688 39.5312C190.036 39.1562 190.432 38.8724 190.875 38.6797C191.318 38.487 191.776 38.3906 192.25 38.3906C192.854 38.3906 193.375 38.4948 193.812 38.7031C194.255 38.9115 194.617 39.2031 194.898 39.5781C195.18 39.9479 195.388 40.3854 195.523 40.8906C195.659 41.3906 195.727 41.9375 195.727 42.5312V43.1797H189.414V42H194.281V41.8906C194.26 41.5156 194.182 41.151 194.047 40.7969C193.917 40.4427 193.708 40.151 193.422 39.9219C193.135 39.6927 192.745 39.5781 192.25 39.5781C191.922 39.5781 191.62 39.6484 191.344 39.7891C191.068 39.9245 190.831 40.1276 190.633 40.3984C190.435 40.6693 190.281 41 190.172 41.3906C190.062 41.7812 190.008 42.2318 190.008 42.7422V43.0703C190.008 43.4714 190.062 43.849 190.172 44.2031C190.286 44.5521 190.451 44.8594 190.664 45.125C190.883 45.3906 191.146 45.599 191.453 45.75C191.766 45.901 192.12 45.9766 192.516 45.9766C193.026 45.9766 193.458 45.8724 193.812 45.6641C194.167 45.4557 194.477 45.1771 194.742 44.8281L195.617 45.5234C195.435 45.7995 195.203 46.0625 194.922 46.3125C194.641 46.5625 194.294 46.7656 193.883 46.9219C193.477 47.0781 192.995 47.1562 192.438 47.1562ZM198.859 39.875V47H197.414V38.5469H198.82L198.859 39.875ZM201.5 38.5L201.492 39.8438C201.372 39.8177 201.258 39.8021 201.148 39.7969C201.044 39.7865 200.924 39.7812 200.789 39.7812C200.456 39.7812 200.161 39.8333 199.906 39.9375C199.651 40.0417 199.435 40.1875 199.258 40.375C199.081 40.5625 198.94 40.7865 198.836 41.0469C198.737 41.3021 198.672 41.5833 198.641 41.8906L198.234 42.125C198.234 41.6146 198.284 41.1354 198.383 40.6875C198.487 40.2396 198.646 39.8438 198.859 39.5C199.073 39.151 199.344 38.8802 199.672 38.6875C200.005 38.4896 200.401 38.3906 200.859 38.3906C200.964 38.3906 201.083 38.4036 201.219 38.4297C201.354 38.4505 201.448 38.474 201.5 38.5ZM207.758 44.7578C207.758 44.5495 207.711 44.3568 207.617 44.1797C207.529 43.9974 207.344 43.8333 207.062 43.6875C206.786 43.5365 206.37 43.4062 205.812 43.2969C205.344 43.1979 204.919 43.0807 204.539 42.9453C204.164 42.8099 203.844 42.6458 203.578 42.4531C203.318 42.2604 203.117 42.0339 202.977 41.7734C202.836 41.513 202.766 41.2083 202.766 40.8594C202.766 40.526 202.839 40.2109 202.984 39.9141C203.135 39.6172 203.346 39.3542 203.617 39.125C203.893 38.8958 204.224 38.7161 204.609 38.5859C204.995 38.4557 205.424 38.3906 205.898 38.3906C206.576 38.3906 207.154 38.5104 207.633 38.75C208.112 38.9896 208.479 39.3099 208.734 39.7109C208.99 40.1068 209.117 40.5469 209.117 41.0312H207.672C207.672 40.7969 207.602 40.5703 207.461 40.3516C207.326 40.1276 207.125 39.9427 206.859 39.7969C206.599 39.651 206.279 39.5781 205.898 39.5781C205.497 39.5781 205.172 39.6406 204.922 39.7656C204.677 39.8854 204.497 40.0391 204.383 40.2266C204.273 40.4141 204.219 40.612 204.219 40.8203C204.219 40.9766 204.245 41.1172 204.297 41.2422C204.354 41.362 204.453 41.474 204.594 41.5781C204.734 41.6771 204.932 41.7708 205.188 41.8594C205.443 41.9479 205.768 42.0365 206.164 42.125C206.857 42.2812 207.427 42.4688 207.875 42.6875C208.323 42.9062 208.656 43.1745 208.875 43.4922C209.094 43.8099 209.203 44.1953 209.203 44.6484C209.203 45.0182 209.125 45.3568 208.969 45.6641C208.818 45.9714 208.596 46.237 208.305 46.4609C208.018 46.6797 207.674 46.8516 207.273 46.9766C206.878 47.0964 206.432 47.1562 205.938 47.1562C205.193 47.1562 204.562 47.0234 204.047 46.7578C203.531 46.4922 203.141 46.1484 202.875 45.7266C202.609 45.3047 202.477 44.8594 202.477 44.3906H203.93C203.951 44.7865 204.065 45.1016 204.273 45.3359C204.482 45.5651 204.737 45.7292 205.039 45.8281C205.341 45.9219 205.641 45.9688 205.938 45.9688C206.333 45.9688 206.664 45.9167 206.93 45.8125C207.201 45.7083 207.406 45.5651 207.547 45.3828C207.688 45.2005 207.758 44.9922 207.758 44.7578ZM212.672 38.5469V47H211.219V38.5469H212.672ZM211.109 36.3047C211.109 36.0703 211.18 35.8724 211.32 35.7109C211.466 35.5495 211.68 35.4688 211.961 35.4688C212.237 35.4688 212.448 35.5495 212.594 35.7109C212.745 35.8724 212.82 36.0703 212.82 36.3047C212.82 36.5286 212.745 36.7214 212.594 36.8828C212.448 37.0391 212.237 37.1172 211.961 37.1172C211.68 37.1172 211.466 37.0391 211.32 36.8828C211.18 36.7214 211.109 36.5286 211.109 36.3047ZM218.531 38.5469V39.6562H213.961V38.5469H218.531ZM215.508 36.4922H216.953V44.9062C216.953 45.1927 216.997 45.4089 217.086 45.5547C217.174 45.7005 217.289 45.7969 217.43 45.8438C217.57 45.8906 217.721 45.9141 217.883 45.9141C218.003 45.9141 218.128 45.9036 218.258 45.8828C218.393 45.8568 218.495 45.8359 218.562 45.8203L218.57 47C218.456 47.0365 218.305 47.0703 218.117 47.1016C217.935 47.138 217.714 47.1562 217.453 47.1562C217.099 47.1562 216.773 47.0859 216.477 46.9453C216.18 46.8047 215.943 46.5703 215.766 46.2422C215.594 45.9089 215.508 45.4609 215.508 44.8984V36.4922ZM223.734 47.1562C223.146 47.1562 222.612 47.0573 222.133 46.8594C221.659 46.6562 221.25 46.3724 220.906 46.0078C220.568 45.6432 220.307 45.2109 220.125 44.7109C219.943 44.2109 219.852 43.6641 219.852 43.0703V42.7422C219.852 42.0547 219.953 41.4427 220.156 40.9062C220.359 40.3646 220.635 39.9062 220.984 39.5312C221.333 39.1562 221.729 38.8724 222.172 38.6797C222.615 38.487 223.073 38.3906 223.547 38.3906C224.151 38.3906 224.672 38.4948 225.109 38.7031C225.552 38.9115 225.914 39.2031 226.195 39.5781C226.477 39.9479 226.685 40.3854 226.82 40.8906C226.956 41.3906 227.023 41.9375 227.023 42.5312V43.1797H220.711V42H225.578V41.8906C225.557 41.5156 225.479 41.151 225.344 40.7969C225.214 40.4427 225.005 40.151 224.719 39.9219C224.432 39.6927 224.042 39.5781 223.547 39.5781C223.219 39.5781 222.917 39.6484 222.641 39.7891C222.365 39.9245 222.128 40.1276 221.93 40.3984C221.732 40.6693 221.578 41 221.469 41.3906C221.359 41.7812 221.305 42.2318 221.305 42.7422V43.0703C221.305 43.4714 221.359 43.849 221.469 44.2031C221.583 44.5521 221.747 44.8594 221.961 45.125C222.18 45.3906 222.443 45.599 222.75 45.75C223.062 45.901 223.417 45.9766 223.812 45.9766C224.323 45.9766 224.755 45.8724 225.109 45.6641C225.464 45.4557 225.773 45.1771 226.039 44.8281L226.914 45.5234C226.732 45.7995 226.5 46.0625 226.219 46.3125C225.938 46.5625 225.591 46.7656 225.18 46.9219C224.773 47.0781 224.292 47.1562 223.734 47.1562ZM230.023 45.2812V46.4453C230.023 46.9193 229.904 47.4193 229.664 47.9453C229.424 48.4766 229.089 48.9193 228.656 49.2734L227.836 48.7031C228.003 48.474 228.143 48.2396 228.258 48C228.372 47.7656 228.458 47.5208 228.516 47.2656C228.578 47.0156 228.609 46.75 228.609 46.4688V45.2812H230.023ZM240.25 42.5391H237.211V41.3125H240.25C240.839 41.3125 241.315 41.2188 241.68 41.0312C242.044 40.8438 242.31 40.5833 242.477 40.25C242.648 39.9167 242.734 39.5365 242.734 39.1094C242.734 38.7188 242.648 38.3516 242.477 38.0078C242.31 37.6641 242.044 37.388 241.68 37.1797C241.315 36.9661 240.839 36.8594 240.25 36.8594H237.562V47H236.055V35.625H240.25C241.109 35.625 241.836 35.7734 242.43 36.0703C243.023 36.3672 243.474 36.7786 243.781 37.3047C244.089 37.8255 244.242 38.4219 244.242 39.0938C244.242 39.8229 244.089 40.4453 243.781 40.9609C243.474 41.4766 243.023 41.8698 242.43 42.1406C241.836 42.4062 241.109 42.5391 240.25 42.5391ZM245.438 42.8672V42.6875C245.438 42.0781 245.526 41.513 245.703 40.9922C245.88 40.4661 246.135 40.0104 246.469 39.625C246.802 39.2344 247.206 38.9323 247.68 38.7188C248.154 38.5 248.685 38.3906 249.273 38.3906C249.867 38.3906 250.401 38.5 250.875 38.7188C251.354 38.9323 251.76 39.2344 252.094 39.625C252.432 40.0104 252.69 40.4661 252.867 40.9922C253.044 41.513 253.133 42.0781 253.133 42.6875V42.8672C253.133 43.4766 253.044 44.0417 252.867 44.5625C252.69 45.0833 252.432 45.5391 252.094 45.9297C251.76 46.3151 251.357 46.6172 250.883 46.8359C250.414 47.0495 249.883 47.1562 249.289 47.1562C248.695 47.1562 248.161 47.0495 247.688 46.8359C247.214 46.6172 246.807 46.3151 246.469 45.9297C246.135 45.5391 245.88 45.0833 245.703 44.5625C245.526 44.0417 245.438 43.4766 245.438 42.8672ZM246.883 42.6875V42.8672C246.883 43.2891 246.932 43.6875 247.031 44.0625C247.13 44.4323 247.279 44.7604 247.477 45.0469C247.68 45.3333 247.932 45.5599 248.234 45.7266C248.536 45.888 248.888 45.9688 249.289 45.9688C249.685 45.9688 250.031 45.888 250.328 45.7266C250.63 45.5599 250.88 45.3333 251.078 45.0469C251.276 44.7604 251.424 44.4323 251.523 44.0625C251.628 43.6875 251.68 43.2891 251.68 42.8672V42.6875C251.68 42.2708 251.628 41.8776 251.523 41.5078C251.424 41.1328 251.273 40.8021 251.07 40.5156C250.872 40.224 250.622 39.9948 250.32 39.8281C250.023 39.6615 249.674 39.5781 249.273 39.5781C248.878 39.5781 248.529 39.6615 248.227 39.8281C247.93 39.9948 247.68 40.224 247.477 40.5156C247.279 40.8021 247.13 41.1328 247.031 41.5078C246.932 41.8776 246.883 42.2708 246.883 42.6875ZM257.086 45.5L259.258 38.5469H260.211L260.023 39.9297L257.812 47H256.883L257.086 45.5ZM255.625 38.5469L257.477 45.5781L257.609 47H256.633L254.18 38.5469H255.625ZM262.289 45.5234L264.055 38.5469H265.492L263.039 47H262.07L262.289 45.5234ZM260.422 38.5469L262.547 45.3828L262.789 47H261.867L259.594 39.9141L259.406 38.5469H260.422ZM270.484 47.1562C269.896 47.1562 269.362 47.0573 268.883 46.8594C268.409 46.6562 268 46.3724 267.656 46.0078C267.318 45.6432 267.057 45.2109 266.875 44.7109C266.693 44.2109 266.602 43.6641 266.602 43.0703V42.7422C266.602 42.0547 266.703 41.4427 266.906 40.9062C267.109 40.3646 267.385 39.9062 267.734 39.5312C268.083 39.1562 268.479 38.8724 268.922 38.6797C269.365 38.487 269.823 38.3906 270.297 38.3906C270.901 38.3906 271.422 38.4948 271.859 38.7031C272.302 38.9115 272.664 39.2031 272.945 39.5781C273.227 39.9479 273.435 40.3854 273.57 40.8906C273.706 41.3906 273.773 41.9375 273.773 42.5312V43.1797H267.461V42H272.328V41.8906C272.307 41.5156 272.229 41.151 272.094 40.7969C271.964 40.4427 271.755 40.151 271.469 39.9219C271.182 39.6927 270.792 39.5781 270.297 39.5781C269.969 39.5781 269.667 39.6484 269.391 39.7891C269.115 39.9245 268.878 40.1276 268.68 40.3984C268.482 40.6693 268.328 41 268.219 41.3906C268.109 41.7812 268.055 42.2318 268.055 42.7422V43.0703C268.055 43.4714 268.109 43.849 268.219 44.2031C268.333 44.5521 268.497 44.8594 268.711 45.125C268.93 45.3906 269.193 45.599 269.5 45.75C269.812 45.901 270.167 45.9766 270.562 45.9766C271.073 45.9766 271.505 45.8724 271.859 45.6641C272.214 45.4557 272.523 45.1771 272.789 44.8281L273.664 45.5234C273.482 45.7995 273.25 46.0625 272.969 46.3125C272.688 46.5625 272.341 46.7656 271.93 46.9219C271.523 47.0781 271.042 47.1562 270.484 47.1562ZM276.906 39.875V47H275.461V38.5469H276.867L276.906 39.875ZM279.547 38.5L279.539 39.8438C279.419 39.8177 279.305 39.8021 279.195 39.7969C279.091 39.7865 278.971 39.7812 278.836 39.7812C278.503 39.7812 278.208 39.8333 277.953 39.9375C277.698 40.0417 277.482 40.1875 277.305 40.375C277.128 40.5625 276.987 40.7865 276.883 41.0469C276.784 41.3021 276.719 41.5833 276.688 41.8906L276.281 42.125C276.281 41.6146 276.331 41.1354 276.43 40.6875C276.534 40.2396 276.693 39.8438 276.906 39.5C277.12 39.151 277.391 38.8802 277.719 38.6875C278.052 38.4896 278.448 38.3906 278.906 38.3906C279.01 38.3906 279.13 38.4036 279.266 38.4297C279.401 38.4505 279.495 38.474 279.547 38.5ZM284.234 47.1562C283.646 47.1562 283.112 47.0573 282.633 46.8594C282.159 46.6562 281.75 46.3724 281.406 46.0078C281.068 45.6432 280.807 45.2109 280.625 44.7109C280.443 44.2109 280.352 43.6641 280.352 43.0703V42.7422C280.352 42.0547 280.453 41.4427 280.656 40.9062C280.859 40.3646 281.135 39.9062 281.484 39.5312C281.833 39.1562 282.229 38.8724 282.672 38.6797C283.115 38.487 283.573 38.3906 284.047 38.3906C284.651 38.3906 285.172 38.4948 285.609 38.7031C286.052 38.9115 286.414 39.2031 286.695 39.5781C286.977 39.9479 287.185 40.3854 287.32 40.8906C287.456 41.3906 287.523 41.9375 287.523 42.5312V43.1797H281.211V42H286.078V41.8906C286.057 41.5156 285.979 41.151 285.844 40.7969C285.714 40.4427 285.505 40.151 285.219 39.9219C284.932 39.6927 284.542 39.5781 284.047 39.5781C283.719 39.5781 283.417 39.6484 283.141 39.7891C282.865 39.9245 282.628 40.1276 282.43 40.3984C282.232 40.6693 282.078 41 281.969 41.3906C281.859 41.7812 281.805 42.2318 281.805 42.7422V43.0703C281.805 43.4714 281.859 43.849 281.969 44.2031C282.083 44.5521 282.247 44.8594 282.461 45.125C282.68 45.3906 282.943 45.599 283.25 45.75C283.562 45.901 283.917 45.9766 284.312 45.9766C284.823 45.9766 285.255 45.8724 285.609 45.6641C285.964 45.4557 286.273 45.1771 286.539 44.8281L287.414 45.5234C287.232 45.7995 287 46.0625 286.719 46.3125C286.438 46.5625 286.091 46.7656 285.68 46.9219C285.273 47.0781 284.792 47.1562 284.234 47.1562ZM294.539 45.3594V35H295.992V47H294.664L294.539 45.3594ZM288.852 42.8672V42.7031C288.852 42.0573 288.93 41.4714 289.086 40.9453C289.247 40.4141 289.474 39.9583 289.766 39.5781C290.062 39.1979 290.414 38.9062 290.82 38.7031C291.232 38.4948 291.69 38.3906 292.195 38.3906C292.727 38.3906 293.19 38.4844 293.586 38.6719C293.987 38.8542 294.326 39.1224 294.602 39.4766C294.883 39.8255 295.104 40.2474 295.266 40.7422C295.427 41.237 295.539 41.7969 295.602 42.4219V43.1406C295.544 43.7604 295.432 44.3177 295.266 44.8125C295.104 45.3073 294.883 45.7292 294.602 46.0781C294.326 46.4271 293.987 46.6953 293.586 46.8828C293.185 47.0651 292.716 47.1562 292.18 47.1562C291.685 47.1562 291.232 47.0495 290.82 46.8359C290.414 46.6224 290.062 46.3229 289.766 45.9375C289.474 45.5521 289.247 45.099 289.086 44.5781C288.93 44.0521 288.852 43.4818 288.852 42.8672ZM290.305 42.7031V42.8672C290.305 43.2891 290.346 43.6849 290.43 44.0547C290.518 44.4245 290.654 44.75 290.836 45.0312C291.018 45.3125 291.25 45.5339 291.531 45.6953C291.812 45.8516 292.148 45.9297 292.539 45.9297C293.018 45.9297 293.411 45.8281 293.719 45.625C294.031 45.4219 294.281 45.1536 294.469 44.8203C294.656 44.487 294.802 44.125 294.906 43.7344V41.8516C294.844 41.5651 294.753 41.2891 294.633 41.0234C294.518 40.7526 294.367 40.513 294.18 40.3047C293.997 40.0911 293.771 39.9219 293.5 39.7969C293.234 39.6719 292.919 39.6094 292.555 39.6094C292.159 39.6094 291.818 39.6927 291.531 39.8594C291.25 40.0208 291.018 40.2448 290.836 40.5312C290.654 40.8125 290.518 41.1406 290.43 41.5156C290.346 41.8854 290.305 42.2812 290.305 42.7031ZM302.203 35H303.656V45.3594L303.531 47H302.203V35ZM309.367 42.7031V42.8672C309.367 43.4818 309.294 44.0521 309.148 44.5781C309.003 45.099 308.789 45.5521 308.508 45.9375C308.227 46.3229 307.883 46.6224 307.477 46.8359C307.07 47.0495 306.604 47.1562 306.078 47.1562C305.542 47.1562 305.07 47.0651 304.664 46.8828C304.263 46.6953 303.924 46.4271 303.648 46.0781C303.372 45.7292 303.151 45.3073 302.984 44.8125C302.823 44.3177 302.711 43.7604 302.648 43.1406V42.4219C302.711 41.7969 302.823 41.237 302.984 40.7422C303.151 40.2474 303.372 39.8255 303.648 39.4766C303.924 39.1224 304.263 38.8542 304.664 38.6719C305.065 38.4844 305.531 38.3906 306.062 38.3906C306.594 38.3906 307.065 38.4948 307.477 38.7031C307.888 38.9062 308.232 39.1979 308.508 39.5781C308.789 39.9583 309.003 40.4141 309.148 40.9453C309.294 41.4714 309.367 42.0573 309.367 42.7031ZM307.914 42.8672V42.7031C307.914 42.2812 307.875 41.8854 307.797 41.5156C307.719 41.1406 307.594 40.8125 307.422 40.5312C307.25 40.2448 307.023 40.0208 306.742 39.8594C306.461 39.6927 306.115 39.6094 305.703 39.6094C305.339 39.6094 305.021 39.6719 304.75 39.7969C304.484 39.9219 304.258 40.0911 304.07 40.3047C303.883 40.513 303.729 40.7526 303.609 41.0234C303.495 41.2891 303.409 41.5651 303.352 41.8516V43.7344C303.435 44.099 303.57 44.4505 303.758 44.7891C303.951 45.1224 304.206 45.3958 304.523 45.6094C304.846 45.8229 305.245 45.9297 305.719 45.9297C306.109 45.9297 306.443 45.8516 306.719 45.6953C307 45.5339 307.227 45.3125 307.398 45.0312C307.576 44.75 307.706 44.4245 307.789 44.0547C307.872 43.6849 307.914 43.2891 307.914 42.8672ZM313.477 46.125L315.828 38.5469H317.375L313.984 48.3047C313.906 48.513 313.802 48.737 313.672 48.9766C313.547 49.2214 313.385 49.4531 313.188 49.6719C312.99 49.8906 312.75 50.0677 312.469 50.2031C312.193 50.3438 311.862 50.4141 311.477 50.4141C311.362 50.4141 311.216 50.3984 311.039 50.3672C310.862 50.3359 310.737 50.3099 310.664 50.2891L310.656 49.1172C310.698 49.1224 310.763 49.1276 310.852 49.1328C310.945 49.1432 311.01 49.1484 311.047 49.1484C311.375 49.1484 311.654 49.1042 311.883 49.0156C312.112 48.9323 312.305 48.7891 312.461 48.5859C312.622 48.388 312.76 48.1146 312.875 47.7656L313.477 46.125ZM311.75 38.5469L313.945 45.1094L314.32 46.6328L313.281 47.1641L310.172 38.5469H311.75ZM331.617 35.625V47H330.102L324.375 38.2266V47H322.867V35.625H324.375L330.125 44.4219V35.625H331.617ZM337.578 47.1562C336.99 47.1562 336.456 47.0573 335.977 46.8594C335.503 46.6562 335.094 46.3724 334.75 46.0078C334.411 45.6432 334.151 45.2109 333.969 44.7109C333.786 44.2109 333.695 43.6641 333.695 43.0703V42.7422C333.695 42.0547 333.797 41.4427 334 40.9062C334.203 40.3646 334.479 39.9062 334.828 39.5312C335.177 39.1562 335.573 38.8724 336.016 38.6797C336.458 38.487 336.917 38.3906 337.391 38.3906C337.995 38.3906 338.516 38.4948 338.953 38.7031C339.396 38.9115 339.758 39.2031 340.039 39.5781C340.32 39.9479 340.529 40.3854 340.664 40.8906C340.799 41.3906 340.867 41.9375 340.867 42.5312V43.1797H334.555V42H339.422V41.8906C339.401 41.5156 339.323 41.151 339.188 40.7969C339.057 40.4427 338.849 40.151 338.562 39.9219C338.276 39.6927 337.885 39.5781 337.391 39.5781C337.062 39.5781 336.76 39.6484 336.484 39.7891C336.208 39.9245 335.971 40.1276 335.773 40.3984C335.576 40.6693 335.422 41 335.312 41.3906C335.203 41.7812 335.148 42.2318 335.148 42.7422V43.0703C335.148 43.4714 335.203 43.849 335.312 44.2031C335.427 44.5521 335.591 44.8594 335.805 45.125C336.023 45.3906 336.286 45.599 336.594 45.75C336.906 45.901 337.26 45.9766 337.656 45.9766C338.167 45.9766 338.599 45.8724 338.953 45.6641C339.307 45.4557 339.617 45.1771 339.883 44.8281L340.758 45.5234C340.576 45.7995 340.344 46.0625 340.062 46.3125C339.781 46.5625 339.435 46.7656 339.023 46.9219C338.617 47.0781 338.135 47.1562 337.578 47.1562ZM344.695 45.5L346.867 38.5469H347.82L347.633 39.9297L345.422 47H344.492L344.695 45.5ZM343.234 38.5469L345.086 45.5781L345.219 47H344.242L341.789 38.5469H343.234ZM349.898 45.5234L351.664 38.5469H353.102L350.648 47H349.68L349.898 45.5234ZM348.031 38.5469L350.156 45.3828L350.398 47H349.477L347.203 39.9141L347.016 38.5469H348.031ZM359.508 44.7578C359.508 44.5495 359.461 44.3568 359.367 44.1797C359.279 43.9974 359.094 43.8333 358.812 43.6875C358.536 43.5365 358.12 43.4062 357.562 43.2969C357.094 43.1979 356.669 43.0807 356.289 42.9453C355.914 42.8099 355.594 42.6458 355.328 42.4531C355.068 42.2604 354.867 42.0339 354.727 41.7734C354.586 41.513 354.516 41.2083 354.516 40.8594C354.516 40.526 354.589 40.2109 354.734 39.9141C354.885 39.6172 355.096 39.3542 355.367 39.125C355.643 38.8958 355.974 38.7161 356.359 38.5859C356.745 38.4557 357.174 38.3906 357.648 38.3906C358.326 38.3906 358.904 38.5104 359.383 38.75C359.862 38.9896 360.229 39.3099 360.484 39.7109C360.74 40.1068 360.867 40.5469 360.867 41.0312H359.422C359.422 40.7969 359.352 40.5703 359.211 40.3516C359.076 40.1276 358.875 39.9427 358.609 39.7969C358.349 39.651 358.029 39.5781 357.648 39.5781C357.247 39.5781 356.922 39.6406 356.672 39.7656C356.427 39.8854 356.247 40.0391 356.133 40.2266C356.023 40.4141 355.969 40.612 355.969 40.8203C355.969 40.9766 355.995 41.1172 356.047 41.2422C356.104 41.362 356.203 41.474 356.344 41.5781C356.484 41.6771 356.682 41.7708 356.938 41.8594C357.193 41.9479 357.518 42.0365 357.914 42.125C358.607 42.2812 359.177 42.4688 359.625 42.6875C360.073 42.9062 360.406 43.1745 360.625 43.4922C360.844 43.8099 360.953 44.1953 360.953 44.6484C360.953 45.0182 360.875 45.3568 360.719 45.6641C360.568 45.9714 360.346 46.237 360.055 46.4609C359.768 46.6797 359.424 46.8516 359.023 46.9766C358.628 47.0964 358.182 47.1562 357.688 47.1562C356.943 47.1562 356.312 47.0234 355.797 46.7578C355.281 46.4922 354.891 46.1484 354.625 45.7266C354.359 45.3047 354.227 44.8594 354.227 44.3906H355.68C355.701 44.7865 355.815 45.1016 356.023 45.3359C356.232 45.5651 356.487 45.7292 356.789 45.8281C357.091 45.9219 357.391 45.9688 357.688 45.9688C358.083 45.9688 358.414 45.9167 358.68 45.8125C358.951 45.7083 359.156 45.5651 359.297 45.3828C359.438 45.2005 359.508 44.9922 359.508 44.7578ZM371.25 36.6328L367.484 47H365.945L370.281 35.625H371.273L371.25 36.6328ZM374.406 47L370.633 36.6328L370.609 35.625H371.602L375.953 47H374.406ZM374.211 42.7891V44.0234H367.82V42.7891H374.211ZM381.672 42.5391H378.633V41.3125H381.672C382.26 41.3125 382.737 41.2188 383.102 41.0312C383.466 40.8438 383.732 40.5833 383.898 40.25C384.07 39.9167 384.156 39.5365 384.156 39.1094C384.156 38.7188 384.07 38.3516 383.898 38.0078C383.732 37.6641 383.466 37.388 383.102 37.1797C382.737 36.9661 382.26 36.8594 381.672 36.8594H378.984V47H377.477V35.625H381.672C382.531 35.625 383.258 35.7734 383.852 36.0703C384.445 36.3672 384.896 36.7786 385.203 37.3047C385.51 37.8255 385.664 38.4219 385.664 39.0938C385.664 39.8229 385.51 40.4453 385.203 40.9609C384.896 41.4766 384.445 41.8698 383.852 42.1406C383.258 42.4062 382.531 42.5391 381.672 42.5391ZM389.188 35.625V47H387.68V35.625H389.188Z" fill="#B6BCBF"/>
<path d="M1071.12 39.7051V41.085H1064.2V39.7051H1071.12ZM1064.46 34.2031V47H1062.76V34.2031H1064.46ZM1072.6 34.2031V47H1070.91V34.2031H1072.6ZM1074.94 42.3506V42.1484C1074.94 41.4629 1075.04 40.8271 1075.23 40.2412C1075.43 39.6494 1075.72 39.1367 1076.1 38.7031C1076.47 38.2637 1076.92 37.9238 1077.46 37.6836C1077.99 37.4375 1078.59 37.3145 1079.25 37.3145C1079.92 37.3145 1080.52 37.4375 1081.05 37.6836C1081.59 37.9238 1082.05 38.2637 1082.42 38.7031C1082.8 39.1367 1083.09 39.6494 1083.29 40.2412C1083.49 40.8271 1083.59 41.4629 1083.59 42.1484V42.3506C1083.59 43.0361 1083.49 43.6719 1083.29 44.2578C1083.09 44.8438 1082.8 45.3564 1082.42 45.7959C1082.05 46.2295 1081.59 46.5693 1081.06 46.8154C1080.53 47.0557 1079.94 47.1758 1079.27 47.1758C1078.6 47.1758 1078 47.0557 1077.47 46.8154C1076.93 46.5693 1076.48 46.2295 1076.1 45.7959C1075.72 45.3564 1075.43 44.8438 1075.23 44.2578C1075.04 43.6719 1074.94 43.0361 1074.94 42.3506ZM1076.56 42.1484V42.3506C1076.56 42.8252 1076.62 43.2734 1076.73 43.6953C1076.84 44.1113 1077.01 44.4805 1077.23 44.8027C1077.46 45.125 1077.74 45.3799 1078.08 45.5674C1078.42 45.749 1078.82 45.8398 1079.27 45.8398C1079.71 45.8398 1080.1 45.749 1080.44 45.5674C1080.78 45.3799 1081.06 45.125 1081.28 44.8027C1081.5 44.4805 1081.67 44.1113 1081.78 43.6953C1081.9 43.2734 1081.96 42.8252 1081.96 42.3506V42.1484C1081.96 41.6797 1081.9 41.2373 1081.78 40.8213C1081.67 40.3994 1081.5 40.0273 1081.27 39.7051C1081.05 39.377 1080.77 39.1191 1080.43 38.9316C1080.09 38.7441 1079.7 38.6504 1079.25 38.6504C1078.81 38.6504 1078.41 38.7441 1078.07 38.9316C1077.74 39.1191 1077.46 39.377 1077.23 39.7051C1077.01 40.0273 1076.84 40.3994 1076.73 40.8213C1076.62 41.2373 1076.56 41.6797 1076.56 42.1484ZM1087.25 39.3799V47H1085.61V37.4902H1087.16L1087.25 39.3799ZM1086.92 41.8848L1086.16 41.8584C1086.17 41.208 1086.25 40.6074 1086.41 40.0566C1086.58 39.5 1086.82 39.0166 1087.14 38.6064C1087.47 38.1963 1087.87 37.8799 1088.35 37.6572C1088.83 37.4287 1089.38 37.3145 1090.02 37.3145C1090.46 37.3145 1090.87 37.3789 1091.25 37.5078C1091.62 37.6309 1091.95 37.8271 1092.22 38.0967C1092.5 38.3662 1092.71 38.7119 1092.87 39.1338C1093.02 39.5557 1093.09 40.0654 1093.09 40.6631V47H1091.47V40.7422C1091.47 40.2441 1091.38 39.8457 1091.21 39.5469C1091.05 39.248 1090.81 39.0312 1090.51 38.8965C1090.21 38.7559 1089.85 38.6855 1089.44 38.6855C1088.96 38.6855 1088.56 38.7705 1088.23 38.9404C1087.91 39.1104 1087.65 39.3447 1087.46 39.6436C1087.27 39.9424 1087.13 40.2852 1087.04 40.6719C1086.96 41.0527 1086.92 41.457 1086.92 41.8848ZM1093.08 40.9883L1091.99 41.3223C1091.99 40.8008 1092.08 40.2998 1092.24 39.8193C1092.41 39.3389 1092.65 38.9111 1092.97 38.5361C1093.29 38.1611 1093.69 37.8652 1094.16 37.6484C1094.63 37.4258 1095.16 37.3145 1095.77 37.3145C1096.28 37.3145 1096.73 37.3818 1097.12 37.5166C1097.52 37.6514 1097.85 37.8594 1098.12 38.1406C1098.4 38.416 1098.6 38.7705 1098.75 39.2041C1098.89 39.6377 1098.96 40.1533 1098.96 40.751V47H1097.32V40.7334C1097.32 40.2002 1097.24 39.7871 1097.07 39.4941C1096.9 39.1953 1096.67 38.9873 1096.36 38.8701C1096.06 38.7471 1095.71 38.6855 1095.29 38.6855C1094.93 38.6855 1094.62 38.7471 1094.34 38.8701C1094.07 38.9932 1093.83 39.1631 1093.65 39.3799C1093.46 39.5908 1093.32 39.834 1093.22 40.1094C1093.12 40.3848 1093.08 40.6777 1093.08 40.9883ZM1105.36 47.1758C1104.7 47.1758 1104.1 47.0645 1103.56 46.8418C1103.03 46.6133 1102.57 46.2939 1102.18 45.8838C1101.8 45.4736 1101.51 44.9873 1101.3 44.4248C1101.1 43.8623 1101 43.2471 1101 42.5791V42.21C1101 41.4365 1101.11 40.748 1101.34 40.1445C1101.57 39.5352 1101.88 39.0195 1102.27 38.5977C1102.66 38.1758 1103.11 37.8564 1103.61 37.6396C1104.1 37.4229 1104.62 37.3145 1105.15 37.3145C1105.83 37.3145 1106.42 37.4316 1106.91 37.666C1107.41 37.9004 1107.82 38.2285 1108.13 38.6504C1108.45 39.0664 1108.68 39.5586 1108.83 40.127C1108.99 40.6895 1109.06 41.3047 1109.06 41.9727V42.7021H1101.96V41.375H1107.44V41.252C1107.41 40.8301 1107.33 40.4199 1107.17 40.0215C1107.03 39.623 1106.79 39.2949 1106.47 39.0371C1106.15 38.7793 1105.71 38.6504 1105.15 38.6504C1104.78 38.6504 1104.44 38.7295 1104.13 38.8877C1103.82 39.04 1103.56 39.2686 1103.33 39.5732C1103.11 39.8779 1102.94 40.25 1102.81 40.6895C1102.69 41.1289 1102.63 41.6357 1102.63 42.21V42.5791C1102.63 43.0303 1102.69 43.4551 1102.81 43.8535C1102.94 44.2461 1103.13 44.5918 1103.37 44.8906C1103.61 45.1895 1103.91 45.4238 1104.26 45.5938C1104.61 45.7637 1105.01 45.8486 1105.45 45.8486C1106.03 45.8486 1106.51 45.7314 1106.91 45.4971C1107.31 45.2627 1107.66 44.9492 1107.96 44.5566L1108.94 45.3389C1108.74 45.6494 1108.47 45.9453 1108.16 46.2266C1107.84 46.5078 1107.45 46.7363 1106.99 46.9121C1106.53 47.0879 1105.99 47.1758 1105.36 47.1758Z" fill="#1A1B22"/>
<path d="M1156.25 34.2031V47H1154.58V34.2031H1156.25ZM1160.36 34.2031V35.5918H1150.47V34.2031H1160.36ZM1162.97 38.9844V47H1161.34V37.4902H1162.93L1162.97 38.9844ZM1165.94 37.4375L1165.93 38.9492C1165.8 38.9199 1165.67 38.9023 1165.55 38.8965C1165.43 38.8848 1165.29 38.8789 1165.14 38.8789C1164.77 38.8789 1164.44 38.9375 1164.15 39.0547C1163.86 39.1719 1163.62 39.3359 1163.42 39.5469C1163.22 39.7578 1163.06 40.0098 1162.94 40.3027C1162.83 40.5898 1162.76 40.9062 1162.72 41.252L1162.27 41.5156C1162.27 40.9414 1162.32 40.4023 1162.43 39.8984C1162.55 39.3945 1162.73 38.9492 1162.97 38.5625C1163.21 38.1699 1163.52 37.8652 1163.88 37.6484C1164.26 37.4258 1164.71 37.3145 1165.22 37.3145C1165.34 37.3145 1165.47 37.3291 1165.62 37.3584C1165.78 37.3818 1165.88 37.4082 1165.94 37.4375ZM1169.21 37.4902V47H1167.58V37.4902H1169.21ZM1167.45 34.9678C1167.45 34.7041 1167.53 34.4814 1167.69 34.2998C1167.85 34.1182 1168.09 34.0273 1168.41 34.0273C1168.72 34.0273 1168.96 34.1182 1169.12 34.2998C1169.29 34.4814 1169.38 34.7041 1169.38 34.9678C1169.38 35.2197 1169.29 35.4365 1169.12 35.6182C1168.96 35.7939 1168.72 35.8818 1168.41 35.8818C1168.09 35.8818 1167.85 35.7939 1167.69 35.6182C1167.53 35.4365 1167.45 35.2197 1167.45 34.9678ZM1173.45 39.3184V50.6562H1171.81V37.4902H1173.31L1173.45 39.3184ZM1179.85 42.166V42.3506C1179.85 43.042 1179.77 43.6836 1179.61 44.2754C1179.44 44.8613 1179.2 45.3711 1178.89 45.8047C1178.58 46.2383 1178.19 46.5752 1177.74 46.8154C1177.28 47.0557 1176.75 47.1758 1176.16 47.1758C1175.56 47.1758 1175.03 47.0762 1174.56 46.877C1174.1 46.6777 1173.71 46.3877 1173.39 46.0068C1173.06 45.626 1172.81 45.1689 1172.61 44.6357C1172.42 44.1025 1172.3 43.502 1172.23 42.834V41.8496C1172.3 41.1465 1172.43 40.5166 1172.62 39.96C1172.81 39.4033 1173.07 38.9287 1173.39 38.5361C1173.71 38.1377 1174.1 37.8359 1174.55 37.6309C1175.01 37.4199 1175.54 37.3145 1176.14 37.3145C1176.73 37.3145 1177.26 37.4316 1177.73 37.666C1178.19 37.8945 1178.58 38.2227 1178.9 38.6504C1179.21 39.0781 1179.45 39.5908 1179.61 40.1885C1179.77 40.7803 1179.85 41.4395 1179.85 42.166ZM1178.22 42.3506V42.166C1178.22 41.6914 1178.17 41.2461 1178.07 40.8301C1177.97 40.4082 1177.82 40.0391 1177.6 39.7227C1177.4 39.4004 1177.14 39.1484 1176.81 38.9668C1176.49 38.7793 1176.11 38.6855 1175.66 38.6855C1175.25 38.6855 1174.89 38.7559 1174.59 38.8965C1174.29 39.0371 1174.04 39.2275 1173.83 39.4678C1173.61 39.7021 1173.44 39.9717 1173.31 40.2764C1173.18 40.5752 1173.08 40.8857 1173.02 41.208V43.4844C1173.13 43.8945 1173.3 44.2812 1173.51 44.6445C1173.72 45.002 1174 45.292 1174.35 45.5146C1174.7 45.7314 1175.15 45.8398 1175.68 45.8398C1176.12 45.8398 1176.5 45.749 1176.81 45.5674C1177.14 45.3799 1177.4 45.125 1177.6 44.8027C1177.82 44.4805 1177.97 44.1113 1178.07 43.6953C1178.17 43.2734 1178.22 42.8252 1178.22 42.3506ZM1183.7 33.5V47H1182.06V33.5H1183.7ZM1190.25 47.1758C1189.59 47.1758 1188.99 47.0645 1188.45 46.8418C1187.92 46.6133 1187.46 46.2939 1187.07 45.8838C1186.69 45.4736 1186.4 44.9873 1186.19 44.4248C1185.99 43.8623 1185.88 43.2471 1185.88 42.5791V42.21C1185.88 41.4365 1186 40.748 1186.23 40.1445C1186.46 39.5352 1186.77 39.0195 1187.16 38.5977C1187.55 38.1758 1188 37.8564 1188.49 37.6396C1188.99 37.4229 1189.51 37.3145 1190.04 37.3145C1190.72 37.3145 1191.31 37.4316 1191.8 37.666C1192.3 37.9004 1192.7 38.2285 1193.02 38.6504C1193.34 39.0664 1193.57 39.5586 1193.72 40.127C1193.88 40.6895 1193.95 41.3047 1193.95 41.9727V42.7021H1186.85V41.375H1192.33V41.252C1192.3 40.8301 1192.21 40.4199 1192.06 40.0215C1191.92 39.623 1191.68 39.2949 1191.36 39.0371C1191.04 38.7793 1190.6 38.6504 1190.04 38.6504C1189.67 38.6504 1189.33 38.7295 1189.02 38.8877C1188.71 39.04 1188.44 39.2686 1188.22 39.5732C1188 39.8779 1187.83 40.25 1187.7 40.6895C1187.58 41.1289 1187.52 41.6357 1187.52 42.21V42.5791C1187.52 43.0303 1187.58 43.4551 1187.7 43.8535C1187.83 44.2461 1188.02 44.5918 1188.26 44.8906C1188.5 45.1895 1188.8 45.4238 1189.14 45.5938C1189.5 45.7637 1189.89 45.8486 1190.34 45.8486C1190.91 45.8486 1191.4 45.7314 1191.8 45.4971C1192.2 45.2627 1192.55 44.9492 1192.84 44.5566L1193.83 45.3389C1193.62 45.6494 1193.36 45.9453 1193.05 46.2266C1192.73 46.5078 1192.34 46.7363 1191.88 46.9121C1191.42 47.0879 1190.88 47.1758 1190.25 47.1758ZM1200.83 34.2031V47H1199.16V34.2031H1200.83ZM1204.94 34.2031V35.5918H1195.05V34.2031H1204.94ZM1209.66 47.1758C1209 47.1758 1208.4 47.0645 1207.86 46.8418C1207.32 46.6133 1206.86 46.2939 1206.48 45.8838C1206.1 45.4736 1205.8 44.9873 1205.6 44.4248C1205.39 43.8623 1205.29 43.2471 1205.29 42.5791V42.21C1205.29 41.4365 1205.4 40.748 1205.63 40.1445C1205.86 39.5352 1206.17 39.0195 1206.56 38.5977C1206.96 38.1758 1207.4 37.8564 1207.9 37.6396C1208.4 37.4229 1208.91 37.3145 1209.45 37.3145C1210.13 37.3145 1210.71 37.4316 1211.21 37.666C1211.7 37.9004 1212.11 38.2285 1212.43 38.6504C1212.74 39.0664 1212.98 39.5586 1213.13 40.127C1213.28 40.6895 1213.36 41.3047 1213.36 41.9727V42.7021H1206.26V41.375H1211.73V41.252C1211.71 40.8301 1211.62 40.4199 1211.47 40.0215C1211.32 39.623 1211.09 39.2949 1210.77 39.0371C1210.44 38.7793 1210 38.6504 1209.45 38.6504C1209.08 38.6504 1208.74 38.7295 1208.43 38.8877C1208.12 39.04 1207.85 39.2686 1207.63 39.5732C1207.41 39.8779 1207.23 40.25 1207.11 40.6895C1206.99 41.1289 1206.92 41.6357 1206.92 42.21V42.5791C1206.92 43.0303 1206.99 43.4551 1207.11 43.8535C1207.24 44.2461 1207.42 44.5918 1207.66 44.8906C1207.91 45.1895 1208.21 45.4238 1208.55 45.5938C1208.9 45.7637 1209.3 45.8486 1209.75 45.8486C1210.32 45.8486 1210.81 45.7314 1211.21 45.4971C1211.6 45.2627 1211.95 44.9492 1212.25 44.5566L1213.24 45.3389C1213.03 45.6494 1212.77 45.9453 1212.45 46.2266C1212.14 46.5078 1211.75 46.7363 1211.28 46.9121C1210.83 47.0879 1210.29 47.1758 1209.66 47.1758ZM1216.88 39.5205V47H1215.26V37.4902H1216.79L1216.88 39.5205ZM1216.5 41.8848L1215.82 41.8584C1215.83 41.208 1215.92 40.6074 1216.11 40.0566C1216.3 39.5 1216.56 39.0166 1216.9 38.6064C1217.24 38.1963 1217.64 37.8799 1218.11 37.6572C1218.59 37.4287 1219.11 37.3145 1219.69 37.3145C1220.16 37.3145 1220.58 37.3789 1220.95 37.5078C1221.33 37.6309 1221.65 37.8301 1221.91 38.1055C1222.18 38.3809 1222.38 38.7383 1222.53 39.1777C1222.67 39.6113 1222.74 40.1416 1222.74 40.7686V47H1221.1V40.751C1221.1 40.2529 1221.03 39.8545 1220.88 39.5557C1220.74 39.251 1220.52 39.0312 1220.24 38.8965C1219.96 38.7559 1219.61 38.6855 1219.2 38.6855C1218.8 38.6855 1218.43 38.7705 1218.1 38.9404C1217.77 39.1104 1217.48 39.3447 1217.24 39.6436C1217.01 39.9424 1216.82 40.2852 1216.69 40.6719C1216.56 41.0527 1216.5 41.457 1216.5 41.8848Z" fill="#1A1B22"/>
<path fill-rule="evenodd" clip-rule="evenodd" d="M1276 29.8945C1270.42 29.8945 1265.89 34.423 1265.89 39.9998C1265.89 44.4662 1268.79 48.2503 1272.81 49.5902C1273.31 49.6832 1273.49 49.3731 1273.49 49.1001C1273.49 48.8582 1273.49 48.2254 1273.48 47.3818C1270.67 47.9897 1270.08 46.0295 1270.08 46.0295C1269.62 44.8632 1268.95 44.5531 1268.95 44.5531C1268.03 43.9265 1269.02 43.9389 1269.02 43.9389C1270.03 44.0134 1270.57 44.9811 1270.57 44.9811C1271.47 46.5257 1272.94 46.0791 1273.51 45.8185C1273.61 45.1672 1273.87 44.7205 1274.15 44.4662C1271.91 44.2119 1269.55 43.3434 1269.55 39.4725C1269.55 38.3683 1269.94 37.4688 1270.59 36.7616C1270.49 36.5073 1270.14 35.4775 1270.69 34.088C1270.69 34.088 1271.54 33.8151 1273.47 35.124C1274.28 34.9006 1275.14 34.789 1276 34.7828C1276.86 34.789 1277.72 34.9006 1278.53 35.124C1280.46 33.8151 1281.31 34.088 1281.31 34.088C1281.86 35.4775 1281.51 36.5073 1281.41 36.7616C1282.05 37.4688 1282.45 38.3683 1282.45 39.4725C1282.45 43.3558 1280.08 44.2057 1277.83 44.46C1278.19 44.7702 1278.52 45.3905 1278.52 46.3334C1278.52 47.6857 1278.51 48.7713 1278.51 49.1063C1278.51 49.3793 1278.69 49.6894 1279.2 49.5902C1283.21 48.2503 1286.11 44.4662 1286.11 40.006C1286.11 34.423 1281.58 29.8945 1276 29.8945Z" fill="#191717"/>
<g clip-path="url(#clip0_301_135)">
<path d="M1332.9 30H1315.1C1314.49 30 1314 30.4942 1314 31.1042V48.8967C1314 49.5058 1314.49 50 1315.1 50H1324.68V42.255H1322.08V39.2367H1324.68V37.0108C1324.68 34.4275 1326.26 33.0208 1328.57 33.0208C1329.67 33.0208 1330.62 33.1033 1330.9 33.14V35.84L1329.3 35.8408C1328.04 35.8408 1327.8 36.4367 1327.8 37.31V39.2375H1330.79L1330.4 42.2558H1327.8V50H1332.9C1333.51 50 1334 49.5058 1334 48.8958V31.1042C1334 30.4942 1333.51 30 1332.9 30V30Z" fill="black"/>
</g>
<defs>
<clipPath id="clip0_301_135">
<rect width="20" height="20" fill="white" transform="translate(1314 30)"/>
</clipPath>
</defs>
</svg>
